<svg xmlns="http://www.w3.org/2000/svg" width="105" height="106"><path d="M24.81 54.029c-6.138-5.389-2.49-13.18 7.737-7.427 6.818 3.835 14.91 10.864 24.274 21.086-17.247-5.514-27.917-10.067-32.01-13.66zM46.286 34.13c-3.622-7.07 2.024-13 9.682-3.47 5.106 6.352 9.56 16.544 13.361 30.576C56.382 47.879 48.701 38.844 46.286 34.13zm36.792 24.465c-4.885-15.25-7.182-25.226-6.89-29.93.438-7.055 5.784-8.665 8.816-1.104 2.02 5.04 1.379 15.386-1.926 31.034zM17.529 82.058c6.078 2.644 17.236 2.693 33.474.146-16.242-6.286-26.285-9.438-30.129-9.454-5.765-.025-12.462 5.341-3.345 9.308z" fill="#FFD040" fill-rule="evenodd"/></svg>